<svg data-v-423bf9ae="" xmlns="http://www.w3.org/2000/svg" viewBox="0 0 354 90" class="iconLeft"><!----><!----><!----><g data-v-423bf9ae="" id="73285feb-50e5-4b49-a17d-69bab9f5e542" fill="#000000" transform="matrix(5.550416065768061,0,0,5.550416065768061,119.6917419755755,3.233117145254944)"><path d="M5.11 2.12L5.11 2.12Q3.82 3.21 3.73 3.83L3.73 3.83L3.73 3.83Q3.64 4.45 3.97 4.98L3.97 4.98L3.97 4.98Q3.64 5.30 3.49 5.74L3.49 5.74L2.47 8.15L1.44 8.15L0.59 9.58L0.85 9.76L1.13 9.39L2.02 9.39L2.02 9.39Q1.59 10.54 0.07 12.68L0.07 12.68L2.11 12.67L3.17 11.09L1.59 11.05L1.59 11.05Q2.34 10.75 2.82 9.39L2.82 9.39L4.41 9.39L5.28 8.39L6.63 11.70L6.63 11.70Q7.05 12.63 7.90 12.71L7.90 12.71L9.00 10.78L8.72 10.60L8.24 11.32L8.24 11.32Q7.83 11.27 7.65 10.81L7.65 10.81L4.87 3.60L4.87 3.60Q4.61 3.04 5.20 2.30L5.20 2.30L5.11 2.12ZM4.26 5.62L5.23 8.18L3.21 8.18L4.26 5.62ZM10.07 3.64L8.88 5.50L9.11 5.59L9.11 5.59Q9.33 5.11 9.81 5.09L9.81 5.09L12.84 5.10L12.84 5.10Q12.02 5.58 11.81 6.62L11.81 6.62L11.81 10.27L11.81 11.12L11.81 11.12Q11.42 11.85 10.47 12.90L10.47 12.90L10.64 12.93L10.64 12.93Q10.86 12.56 13.06 12.69L13.06 12.69L14.18 11.37L14.02 11.25L14.02 11.25Q13.69 11.48 12.13 11.42L12.13 11.42L12.13 11.42Q12.61 10.92 13.25 9.88L13.25 9.88L13.24 5.11L15.58 5.10L16.88 3.76L16.78 3.64L10.07 3.64ZM17.26 6.60L17.26 6.60L17.26 6.60Q16.91 6.77 16.15 7.54L16.15 7.54L16.15 7.54Q15.38 8.31 15.24 9.52L15.24 9.52L15.24 9.52Q15.10 10.73 15.92 11.70L15.92 11.70L15.92 11.70Q16.75 12.67 17.37 12.75L17.37 12.75L17.37 12.75Q17.99 12.82 18.46 12.39L18.46 12.39L18.46 12.39Q18.93 11.96 19.54 10.90L19.54 10.90L19.54 10.90Q20.15 9.84 20.04 8.90L20.04 8.90L20.04 8.90Q19.93 7.96 19.27 7.30L19.27 7.30L19.27 7.30Q18.61 6.65 18.11 6.54L18.11 6.54L18.11 6.54Q17.61 6.43 17.26 6.60ZM16.93 7.67L16.93 7.67L16.93 7.67Q17.58 7.57 18.29 8.30L18.29 8.30L18.29 8.30Q19.00 9.03 19.09 9.85L19.09 9.85L19.09 9.85Q19.17 10.67 18.84 11.09L18.84 11.09L18.84 11.09Q18.50 11.50 17.83 11.43L17.83 11.43L17.83 11.43Q17.17 11.35 16.61 10.31L16.61 10.31L16.61 10.31Q16.06 9.27 16.16 8.52L16.16 8.52L16.16 8.52Q16.27 7.78 16.93 7.67ZM21.56 6.54L20.22 8.20L20.41 8.33L20.41 8.33Q20.84 7.75 21.10 7.88L21.10 7.88L21.10 7.88Q21.36 8.00 21.32 8.77L21.32 8.77L21.32 11.55L21.32 11.55Q21.46 12.53 22.17 12.68L22.17 12.68L23.52 11.37L23.41 11.23L23.41 11.23Q22.72 11.67 22.70 11.01L22.70 11.01L22.70 8.33L22.70 8.33Q22.75 7.54 23.11 7.51L23.11 7.51L23.11 7.51Q23.46 7.47 23.85 8.21L23.85 8.21L25.01 7.31L25.01 7.31Q24.56 6.63 24.06 6.51L24.06 6.51L24.06 6.51Q23.55 6.39 23.20 6.71L23.20 6.71L23.20 6.71Q22.85 7.03 22.61 7.55L22.61 7.55L22.61 7.55Q22.49 6.67 21.56 6.54L21.56 6.54ZM27.35 6.52L27.35 6.52Q26.52 7.02 25.76 8.07L25.76 8.07L25.76 8.07Q25.01 9.11 24.95 9.85L24.95 9.85L24.95 9.85Q24.90 10.59 25.68 11.61L25.68 11.61L25.68 11.61Q26.46 12.63 26.88 12.68L26.88 12.68L26.88 12.68Q27.65 12.04 28.13 11.63L28.13 11.63L28.13 11.63Q28.31 12.37 29.20 12.73L29.20 12.73L30.55 11.09L30.32 10.94L30.03 11.26L30.03 11.26Q29.68 11.42 29.46 11.14L29.46 11.14L29.46 11.14Q29.24 10.87 29.26 10.47L29.26 10.47L29.26 7.18L29.26 7.18Q29.29 6.68 29.63 6.51L29.63 6.51L27.35 6.52ZM26.56 7.60L28.22 7.60L27.98 8.07L27.98 8.32L27.98 11.25L27.98 11.25Q27.38 11.72 26.50 10.45L26.50 10.45L26.50 10.45Q25.63 9.17 26.56 7.60L26.56 7.60ZM33.95 5.07L33.95 5.07L33.95 6.54L32.53 6.54L32.53 6.54Q30.90 8.91 30.78 9.56L30.78 9.56L30.78 9.56Q30.65 10.20 30.84 10.75L30.84 10.75L30.84 10.75Q31.04 11.31 31.75 12.11L31.75 12.11L31.75 12.11Q32.46 12.91 32.81 12.61L32.81 12.61L33.97 11.57L33.97 11.57Q34.28 12.68 34.99 12.67L34.99 12.67L35.94 11.48L36.28 11.10L36.07 10.87L35.59 11.38L35.59 11.38Q35.22 11.27 35.23 9.72L35.23 9.72L35.23 5.13L35.23 5.13Q35.16 3.61 35.82 3.19L35.82 3.19L35.63 3.07L35.63 3.07Q34.05 3.72 33.95 5.07ZM33.41 7.98L33.97 7.23L33.97 11.16L33.97 11.16Q33.23 11.41 32.58 10.48L32.58 10.48L32.58 10.48Q31.93 9.56 31.88 8.93L31.88 8.93L31.88 8.93Q31.82 8.31 32.16 7.98L32.16 7.98L33.41 7.98ZM38.91 6.52L38.91 6.52Q38.08 7.02 37.32 8.07L37.32 8.07L37.32 8.07Q36.57 9.11 36.51 9.85L36.51 9.85L36.51 9.85Q36.46 10.59 37.24 11.61L37.24 11.61L37.24 11.61Q38.01 12.63 38.44 12.68L38.44 12.68L38.44 12.68Q39.21 12.04 39.69 11.63L39.69 11.63L39.69 11.63Q39.87 12.37 40.76 12.73L40.76 12.73L42.11 11.09L41.88 10.94L41.59 11.26L41.59 11.26Q41.24 11.42 41.02 11.14L41.02 11.14L41.02 11.14Q40.80 10.87 40.82 10.47L40.82 10.47L40.82 7.18L40.82 7.18Q40.84 6.68 41.19 6.51L41.19 6.51L38.91 6.52ZM38.12 7.60L39.78 7.60L39.54 8.07L39.54 8.32L39.54 11.25L39.54 11.25Q38.94 11.72 38.06 10.45L38.06 10.45L38.06 10.45Q37.19 9.17 38.12 7.60L38.12 7.60Z"></path></g><defs data-v-423bf9ae=""><linearGradient data-v-423bf9ae="" gradientTransform="rotate(25)" id="29010d1c-670a-44e3-88ad-4614c536db9c" x1="0%" y1="0%" x2="100%" y2="0%"><stop data-v-423bf9ae="" offset="0%" style="stop-color: rgb(141, 44, 227); stop-opacity: 1;"></stop><stop data-v-423bf9ae="" offset="100%" style="stop-color: rgb(247, 198, 246); stop-opacity: 1;"></stop></linearGradient></defs><g data-v-423bf9ae="" id="18fc6907-552d-4fa2-90cc-a0a8c5d4f590" transform="matrix(1.000792558804351,0,0,1.000792558804351,0.9600622975691451,-3.0030182824351215)" stroke="none" fill="url(#29010d1c-670a-44e3-88ad-4614c536db9c)"><path d="M25.467 55.542l2.93 16.478-7.8 4.685v17.032h-6.433V70.111zM83.154 65.604l-3.802 9.286 12.785 18.847h6.551z"></path><path d="M99.756 42.458H22.659c-7.491-.615-13.381-6.884-13.381-14.534 0-8.052 6.523-14.581 14.571-14.591l.021.001.019-.001a4.763 4.763 0 1 0-.018-9.523l-.167.001C10.462 3.9-.245 14.661-.245 27.922c0 13.316 10.797 24.112 24.114 24.112h1.738L41.52 93.737h6.508l-5.312-17.032 9.792-11.1h13.188v28.132h6.44V76.705l15.578-19.314a7.241 7.241 0 0 0 10.861-6.27 7.208 7.208 0 0 0-1.878-4.867l3.059-3.796z"></path><path d="M25.607 52.034L41.52 93.737h6.508l-5.312-17.032"></path></g><!----></svg>